<svg width="1080" height="1920" viewBox="0 0 1080 1920" fill="none" xmlns="http://www.w3.org/2000/svg">
<g clip-path="url(#clip0_2911_335)">
<rect width="1080" height="1920" fill="#D9D9D9"/>
<rect x="323.75" y="233.75" width="432.5" height="1647.5" fill="#C8C8C8" stroke="#9E9E9E" stroke-width="1.5"/>
<rect x="-6.25" y="0.75" width="1091.5" height="231.5" fill="#F6F6F6" stroke="#9E9E9E" stroke-width="1.5"/>
<g clip-path="url(#clip1_2911_335)">
<path d="M298.815 113.114C298.138 113.116 297.489 113.386 297.011 113.865C296.532 114.343 296.262 114.992 296.26 115.669V122.854C296.287 124.554 296.44 126.249 296.718 127.925C296.718 127.925 297.645 133.005 300.488 136.153C303.378 139.256 309.287 140.315 309.287 140.315C310.964 140.59 312.659 140.741 314.359 140.766H338.425C340.122 140.736 341.814 140.566 343.483 140.259C343.483 140.259 347.888 139.365 350.457 136.813C353.045 134.296 353.866 130.085 353.866 130.085C354.162 128.413 354.326 126.72 354.354 125.022V115.669C354.352 114.992 354.082 114.344 353.604 113.865C353.125 113.386 352.476 113.117 351.8 113.114H334.236C333.506 113.147 332.803 113.397 332.217 113.834C331.631 114.27 331.19 114.872 330.95 115.562L330.041 118.605C329.638 119.954 330.458 121.055 331.864 121.055H341.473C342.877 121.055 344.027 122.034 344.027 123.231C344.027 124.428 343.89 126.551 343.724 127.945C343.587 128.729 343.229 129.458 342.693 130.047C342.148 130.636 341.425 131.033 340.635 131.177C338.949 131.395 337.251 131.514 335.551 131.536H317.454C315.756 131.509 314.062 131.355 312.387 131.074C311.113 130.784 309.938 130.162 308.982 129.272C308.028 128.333 307.365 127.138 307.073 125.832C306.8 124.154 306.651 122.459 306.626 120.76V115.667C306.623 114.991 306.354 114.342 305.876 113.864C305.397 113.385 304.749 113.115 304.073 113.113H298.815V113.114Z" fill="#F9BC22"/>
<path d="M298.931 100.805C298.257 102.04 298.855 103.047 300.261 103.047H346.763C347.494 103.015 348.199 102.765 348.788 102.33C349.377 101.896 349.823 101.296 350.069 100.607L351.295 96.6147C351.708 95.2718 350.897 94.1741 349.494 94.1741H314.48C312.781 94.2 311.086 94.3499 309.409 94.6228C309.409 94.6228 303.37 95.7045 300.562 98.72C299.946 99.3554 299.399 100.054 298.931 100.805Z" fill="#F9BC22"/>
<path d="M402.137 140.998H380.196C378.497 140.973 376.802 140.822 375.125 140.547C373.996 140.322 372.885 140.015 371.802 139.627C370.803 139.279 369.835 138.848 368.907 138.339C367.945 137.823 367.069 137.161 366.31 136.376C365.607 135.584 365.006 134.708 364.519 133.768C364.065 132.904 363.676 132.008 363.355 131.087C363.012 130.129 362.738 129.148 362.535 128.151C362.257 126.476 362.104 124.782 362.079 123.083V111.855C362.105 110.156 362.253 108.461 362.525 106.783C362.726 105.766 362.998 104.765 363.34 103.786C363.657 102.856 364.043 101.952 364.495 101.08C364.972 100.144 365.568 99.2732 366.268 98.4901C367.018 97.7205 367.885 97.0749 368.838 96.5776C369.772 96.076 370.746 95.652 371.75 95.3098C372.852 94.9255 373.98 94.6192 375.125 94.3929C376.802 94.1183 378.497 93.9676 380.196 93.9421V93.9438H402.139C403.838 93.9692 405.533 94.1181 407.211 94.3892C408.364 94.6151 409.499 94.922 410.608 95.3078C411.613 95.6484 412.588 96.0725 413.523 96.5756C414.469 97.0707 415.327 97.7178 416.064 98.4911C416.763 99.2632 417.359 100.123 417.837 101.048C418.288 101.907 418.674 102.8 418.991 103.717C419.332 104.68 419.604 105.667 419.804 106.669C420.079 108.346 420.229 110.041 420.255 111.74V123.201C420.228 124.898 420.07 126.591 419.782 128.265C419.576 129.253 419.3 130.225 418.956 131.175C418.634 132.084 418.246 132.968 417.795 133.82C417.312 134.743 416.716 135.602 416.021 136.376C415.275 137.164 414.407 137.828 413.451 138.341C412.524 138.852 411.555 139.283 410.555 139.63C409.464 140.019 408.346 140.326 407.209 140.551C405.532 140.823 403.836 140.973 402.137 140.998ZM383.323 102.817C381.624 102.842 379.929 102.988 378.251 103.254C377.86 103.335 377.478 103.454 377.11 103.608C376.256 103.952 375.477 104.458 374.815 105.098C374.178 105.759 373.676 106.539 373.337 107.393C373.178 107.773 373.053 108.166 372.964 108.568C372.67 110.241 372.508 111.934 372.481 113.632V121.106C372.507 122.804 372.659 124.497 372.936 126.173C373.02 126.557 373.143 126.932 373.303 127.291C373.66 128.126 374.183 128.879 374.841 129.504C375.513 130.131 376.294 130.63 377.144 130.977C377.502 131.128 377.874 131.245 378.254 131.325C379.931 131.594 381.626 131.741 383.325 131.765H401.606C401.609 131.765 402.74 131.562 404.124 131.309C404.521 131.225 404.91 131.106 405.285 130.952C406.128 130.622 406.899 130.131 407.554 129.506C407.92 129.163 408.243 128.775 408.514 128.352C408.742 127.999 408.938 127.626 409.1 127.237C409.262 126.859 409.386 126.466 409.47 126.063C409.741 124.386 409.89 122.691 409.916 120.992V113.618C409.889 111.919 409.735 110.225 409.454 108.549C409.367 108.143 409.242 107.746 409.081 107.364C408.922 106.974 408.729 106.599 408.505 106.243C408.242 105.823 407.928 105.436 407.571 105.092C406.906 104.446 406.121 103.938 405.26 103.595C404.889 103.44 404.504 103.322 404.11 103.242C402.432 102.984 400.737 102.842 399.039 102.819L383.323 102.817Z" fill="#F9BC22"/>
<path d="M427.98 138.445C427.982 139.122 428.252 139.77 428.731 140.248C429.209 140.727 429.858 140.996 430.534 140.998H468.637C469.369 140.965 470.074 140.715 470.663 140.28C471.252 139.846 471.699 139.246 471.947 138.557L473.29 134.209C473.704 132.865 472.895 131.767 471.491 131.767H440.867C440.19 131.765 439.542 131.495 439.063 131.017C438.585 130.539 438.315 129.891 438.312 129.214V96.4963C438.31 95.8195 438.04 95.1711 437.562 94.6925C437.083 94.2139 436.435 93.9441 435.758 93.9419H430.536C429.859 93.9441 429.211 94.2139 428.732 94.6925C428.254 95.1711 427.984 95.8195 427.982 96.4963V138.445H427.98Z" fill="#F9BC22"/>
<path d="M481.123 138.447C481.126 139.124 481.396 139.772 481.874 140.25C482.353 140.729 483.001 140.998 483.678 141H520.262C521.961 140.974 523.656 140.825 525.333 140.553C525.333 140.553 531.354 139.485 534.17 136.371C536.964 133.312 537.908 128.266 537.908 128.266C538.194 126.593 538.352 124.9 538.379 123.203V111.736C538.379 110.332 538.319 108.391 538.247 107.421C538.084 106.295 537.858 105.179 537.57 104.078C537.569 104.076 537.084 103.03 536.492 101.756C535.88 100.561 535.101 99.459 534.178 98.484C531.438 95.4645 525.332 94.3848 525.332 94.3848C523.655 94.114 521.96 93.9652 520.261 93.9397H483.678C483.001 93.9419 482.352 94.2117 481.874 94.6903C481.395 95.1689 481.125 95.8173 481.123 96.4941V100.333C481.125 101.01 481.395 101.658 481.874 102.136C482.352 102.615 483.001 102.884 483.678 102.885L517.163 102.871C518.567 102.869 519.799 102.869 519.901 102.871C520.004 102.873 521.381 103.134 522.757 103.426C523.878 103.743 524.897 104.349 525.71 105.184C526.668 106.127 527.33 107.33 527.611 108.645C527.878 110.323 528.024 112.018 528.049 113.716V121.003C528.023 122.702 527.872 124.397 527.597 126.074C527.298 127.384 526.625 128.579 525.659 129.513C524.704 130.41 523.527 131.033 522.249 131.32C520.573 131.599 518.878 131.752 517.179 131.778H494.008C493.332 131.776 492.684 131.506 492.205 131.028C491.726 130.55 491.456 129.902 491.454 129.225V116.243C491.452 115.566 491.182 114.918 490.703 114.439C490.225 113.96 489.576 113.691 488.9 113.688H483.679C483.003 113.691 482.354 113.96 481.876 114.439C481.397 114.918 481.127 115.566 481.125 116.243V138.447H481.123Z" fill="#F9BC22"/>
<path d="M546.104 138.44C546.106 139.117 546.376 139.765 546.854 140.243C547.333 140.721 547.981 140.991 548.658 140.993H553.878C554.555 140.991 555.203 140.721 555.682 140.243C556.16 139.765 556.43 139.117 556.433 138.44V128.297C556.435 127.621 556.705 126.972 557.183 126.494C557.662 126.016 558.31 125.747 558.987 125.745H581.024C582.722 125.718 584.416 125.557 586.089 125.265C586.089 125.265 591.723 124.191 594.614 120.999C597.413 117.898 598.937 113.855 598.881 109.678C598.937 105.563 597.41 101.583 594.616 98.5614C591.795 95.4585 586.091 94.4101 586.091 94.4101C584.416 94.128 582.722 93.9732 581.024 93.947H548.658C547.981 93.9492 547.333 94.2191 546.854 94.6976C546.376 95.1762 546.106 95.8246 546.104 96.5014V100.452C546.106 101.128 546.376 101.777 546.854 102.255C547.333 102.734 547.981 103.004 548.658 103.006H579.641C581.339 103.035 583.032 103.199 584.703 103.498C584.703 103.498 585.731 103.7 586.926 105.068C588.111 106.359 588.758 108.054 588.736 109.806C588.745 111.575 588.102 113.286 586.929 114.611C585.648 116.002 584.594 116.209 584.594 116.209C582.921 116.505 581.228 116.669 579.53 116.698H548.658C547.981 116.7 547.333 116.97 546.854 117.449C546.376 117.927 546.106 118.576 546.104 119.252V138.439V138.44Z" fill="black"/>
<path d="M606.61 138.435C606.612 139.112 606.882 139.76 607.36 140.238C607.839 140.717 608.487 140.986 609.164 140.988H649.764C650.495 140.956 651.199 140.706 651.787 140.271C652.374 139.836 652.818 139.235 653.062 138.545L654.332 134.356C654.741 133.011 653.925 131.913 652.521 131.913H619.456C618.779 131.911 618.131 131.64 617.652 131.162C617.173 130.683 616.904 130.034 616.902 129.357V123.912C616.904 123.235 617.173 122.586 617.652 122.107C618.131 121.628 618.779 121.358 619.456 121.356H647.223C647.954 121.324 648.658 121.074 649.246 120.638C649.833 120.203 650.277 119.601 650.52 118.911L651.512 115.654C651.921 114.309 651.104 113.209 649.7 113.209H609.162C608.485 113.212 607.836 113.482 607.358 113.96C606.879 114.439 606.609 115.087 606.607 115.764V138.435H606.61Z" fill="black"/>
<path d="M606.609 100.455C606.611 101.132 606.881 101.781 607.359 102.259C607.838 102.738 608.486 103.008 609.163 103.01H649.764C650.494 102.977 651.199 102.727 651.786 102.292C652.374 101.856 652.818 101.255 653.061 100.565L654.332 96.3948C654.741 95.0519 653.924 93.9521 652.52 93.9521H609.162C608.485 93.9543 607.836 94.2242 607.358 94.7027C606.879 95.1813 606.609 95.8298 606.607 96.5066V100.455H606.609Z" fill="black"/>
<path d="M662.451 138.559C662.027 139.9 662.829 140.994 664.233 140.994H697.65C699.348 140.966 701.041 140.801 702.712 140.502C702.712 140.502 707.637 139.535 710.211 136.65C712.781 133.803 714.173 130.087 714.106 126.252C714.106 122.355 711.571 118.308 711.571 118.308C710.824 117.117 710.213 116.143 710.211 116.141C710.209 116.14 709.277 115.467 708.137 114.647L702.718 112.435C701.042 112.158 699.348 112.006 697.649 111.979H675.709C675.666 111.979 674.361 111.959 672.956 111.959H663.921C662.517 111.959 661.805 113.023 662.342 114.321C662.908 115.561 663.66 116.707 664.572 117.719C667.063 120.508 671.804 121.394 671.804 121.394C673.479 121.679 675.173 121.835 676.871 121.862H697.372C699.058 121.893 700.738 122.075 702.391 122.404L703.314 123.464C704.188 124.46 704.665 125.743 704.655 127.068C704.645 128.393 704.15 129.669 703.262 130.652C702.949 131.031 702.608 131.387 702.243 131.716C700.575 132.031 698.884 132.204 697.187 132.234H667.006C666.274 132.267 665.567 132.517 664.976 132.95C664.384 133.383 663.934 133.981 663.68 134.669L662.451 138.559Z" fill="black"/>
<path d="M662.751 100.372C662.14 101.638 662.789 102.672 664.195 102.672H705.377C706.11 102.639 706.817 102.39 707.409 101.957C708.001 101.524 708.452 100.925 708.705 100.237L709.931 96.3812C710.354 95.0419 709.554 93.9456 708.15 93.9456H676.896C675.197 93.9707 673.502 94.1173 671.824 94.384C671.824 94.384 666.973 95.2294 664.596 97.8666C663.872 98.6158 663.251 99.4585 662.751 100.372Z" fill="black"/>
<path d="M771.233 138.74C771.627 139.393 772.174 139.94 772.828 140.334C773.481 140.727 774.221 140.954 774.983 140.996H781.853C783.257 140.996 783.857 139.985 783.187 138.754L760.05 96.187C759.648 95.5363 759.095 94.9925 758.438 94.6017C757.781 94.2109 757.039 93.9849 756.275 93.9429H749.02C748.256 93.9855 747.514 94.2118 746.857 94.6025C746.2 94.9932 745.647 95.5368 745.245 96.187L722.108 138.754C721.438 139.989 722.038 140.997 723.443 140.997H729.999C730.762 140.955 731.503 140.728 732.159 140.336C732.815 139.944 733.366 139.399 733.765 138.747L751.448 105.883C752.115 104.644 753.197 104.648 753.855 105.892L771.233 138.74Z" fill="black"/>
</g>
<rect x="-11.5259" y="383.474" width="1103.05" height="116.052" fill="white" stroke="#9E9E9E" stroke-width="0.948148"/>
<text fill="#1B1B1B" xml:space="preserve" style="white-space: pre" font-family="Roboto Mono" font-size="52.1481" letter-spacing="0em"><tspan x="135.231" y="458.615">Pawn BuyBack: {{PAWN_BUYBACK}}</tspan></text>
<rect x="-6.52593" y="1286.47" width="1092.05" height="116.052" fill="white" stroke="#9E9E9E" stroke-width="0.948148"/>
<text fill="#1B1B1B" xml:space="preserve" style="white-space: pre" font-family="Roboto Mono" font-size="35" letter-spacing="0em"><tspan x="135.453" y="1358.01">Tx Hash:</tspan></text>
<text fill="#1B1B1B" xml:space="preserve" style="white-space: pre" font-family="Roboto Mono" font-size="25" letter-spacing="0em"><tspan x="345.453" y="1354.62">{{TX_HASH}}</tspan></text>
<rect x="-6.52593" y="907.474" width="1092.05" height="350.052" fill="url(#paint0_linear_2911_335)" stroke="#9E9E9E" stroke-width="0.948148"/>
<text fill="#1B1B1B" xml:space="preserve" style="white-space: pre" font-family="Roboto Mono" font-size="45" letter-spacing="0em"><tspan x="135" y="992.913">GPX Price After:</tspan></text>
<text fill="#1B1B1B" xml:space="preserve" style="white-space: pre" font-family="Roboto Mono" font-size="161.821" font-weight="bold" letter-spacing="0em"><tspan x="135" y="1174.29">{{GPX_PRICE_AFTER}}</tspan></text>
<rect x="-6.52593" y="528.474" width="1092.05" height="350.052" fill="url(#paint1_linear_2911_335)" stroke="#9E9E9E" stroke-width="0.948148"/>
<text fill="#1B1B1B" xml:space="preserve" style="white-space: pre" font-family="Roboto Mono" font-size="45" letter-spacing="0em"><tspan x="135" y="599.979">GPX Price Before:</tspan></text>
<text fill="#1B1B1B" xml:space="preserve" style="white-space: pre" font-family="Roboto Mono" font-size="161.821" font-weight="bold" letter-spacing="0em"><tspan x="135" y="781.356">{{GPX_PRICE_BEFORE}}</tspan></text>
<rect x="250.75" y="1882.75" width="577.5" height="38.5" fill="#F6F6F6" stroke="#9E9E9E" stroke-width="1.5"/>
<rect x="-0.25" y="1840.75" width="80" height="80" fill="#F6F6F6" stroke="#9E9E9E" stroke-width="1.5"/>
<path d="M18.9905 1859.99L58.1348 1899.14" stroke="#9E9E9E" stroke-width="1.53774"/>
<path d="M18.9905 1899.55L58.1348 1860.41" stroke="#9E9E9E" stroke-width="1.53774"/>
<rect x="32.9863" y="1873.83" width="10.7642" height="10.7642" rx="3.07547" fill="#9E9E9E"/>
<rect x="1000.75" y="1840.75" width="80" height="80" fill="#F6F6F6" stroke="#9E9E9E" stroke-width="1.5"/>
<path d="M1019.99 1859.99L1059.14 1899.14" stroke="#9E9E9E" stroke-width="1.53774"/>
<path d="M1019.99 1899.55L1059.14 1860.41" stroke="#9E9E9E" stroke-width="1.53774"/>
<rect x="1033.99" y="1873.83" width="10.7642" height="10.7642" rx="3.07547" fill="#9E9E9E"/>
</g>
<defs>
<linearGradient id="paint0_linear_2911_335" x1="1086" y1="1082.5" x2="-7" y2="1082.5" gradientUnits="userSpaceOnUse">
<stop stop-color="#FFD66D"/>
<stop offset="1" stop-color="white"/>
</linearGradient>
<linearGradient id="paint1_linear_2911_335" x1="1086" y1="703.5" x2="-7" y2="703.5" gradientUnits="userSpaceOnUse">
<stop stop-color="#BEBEBE"/>
<stop offset="1" stop-color="white"/>
</linearGradient>
<clipPath id="clip0_2911_335">
<rect width="1080" height="1920" fill="white"/>
</clipPath>
<clipPath id="clip1_2911_335">
<rect width="487.201" height="47.0602" fill="white" transform="translate(296.26 93.9397)"/>
</clipPath>
</defs>
</svg>
