<svg width="1200" height="1200" viewBox="0 0 1200 1200" fill="none" xmlns="http://www.w3.org/2000/svg">
<g clip-path="url(#clip0_2916_114)">
<rect width="1200" height="1200" fill="#D9D9D9"/>
<rect x="359.722" y="98.6112" width="480.556" height="970.556" fill="#C8C8C8" stroke="#9E9E9E" stroke-width="1.66667"/>
<rect x="-12.8063" y="113.527" width="1225.61" height="128.947" fill="white" stroke="#9E9E9E" stroke-width="1.0535"/>
<text fill="#1B1B1B" xml:space="preserve" style="white-space: pre" font-family="Roboto Mono" font-size="52" letter-spacing="0em"><tspan x="120" y="198.698">Pawn BuyBack: {{PAWN_BUYBACK}}</tspan></text>
<rect x="-7.25108" y="1070.53" width="1213.39" height="128.947" fill="white" stroke="#9E9E9E" stroke-width="1.0535"/>
<text fill="#1B1B1B" xml:space="preserve" style="white-space: pre" font-family="Roboto Mono" font-size="38.8889" letter-spacing="0em"><tspan x="150.503" y="1149.95">Tx Hash:</tspan></text>
<text fill="#1B1B1B" xml:space="preserve" style="white-space: pre" font-family="Roboto Mono" font-size="27.7778" letter-spacing="0em"><tspan x="383.837" y="1146.42">{{TX_HASH}}</tspan></text>
<rect x="-7.25108" y="664.971" width="1213.39" height="388.947" fill="url(#paint0_linear_2916_114)" stroke="#9E9E9E" stroke-width="1.0535"/>
<text fill="#1B1B1B" xml:space="preserve" style="white-space: pre" font-family="Roboto Mono" font-size="50" letter-spacing="0em"><tspan x="65" y="760.125">GPX Price After:</tspan></text>
<text fill="#1B1B1B" xml:space="preserve" style="white-space: pre" font-family="Roboto Mono" font-size="120" font-weight="bold" letter-spacing="0em"><tspan x="100" y="939.871">{{GPX_PRICE_AFTER}}</tspan></text>
<rect x="-7.25108" y="259.416" width="1213.39" height="388.947" fill="url(#paint1_linear_2916_114)" stroke="#9E9E9E" stroke-width="1.0535"/>
<text fill="#1B1B1B" xml:space="preserve" style="white-space: pre" font-family="Roboto Mono" font-size="50" letter-spacing="0em"><tspan x="65" y="339.088">GPX Price Before:</tspan></text>
<text fill="#1B1B1B" xml:space="preserve" style="white-space: pre" font-family="Roboto Mono" font-size="120" font-weight="bold" letter-spacing="0em"><tspan x="100" y="527.833">{{GPX_PRICE_BEFORE}}</tspan></text>
<rect x="-7.25005" y="0.527778" width="1213.39" height="96.7222" fill="#F6F6F6" stroke="#9E9E9E" stroke-width="1.05556"/>
<g clip-path="url(#clip1_2916_114)">
<path d="M400.297 45.8044C399.736 45.8059 399.199 46.0292 398.803 46.4254C398.407 46.8216 398.184 47.3586 398.182 47.919V53.8671C398.204 55.274 398.331 56.6773 398.561 58.0654C398.561 58.0654 399.328 62.2706 401.682 64.876C404.074 67.4447 408.966 68.3217 408.966 68.3217C410.354 68.5497 411.758 68.6744 413.164 68.6948H433.087C434.492 68.6702 435.893 68.53 437.275 68.2756C437.275 68.2756 440.921 67.5353 443.047 65.4224C445.19 63.3392 445.869 59.8532 445.869 59.8532C446.115 58.4689 446.25 57.0673 446.274 55.6616V47.919C446.272 47.3587 446.049 46.8219 445.652 46.4257C445.256 46.0296 444.719 45.8062 444.159 45.8044H429.619C429.015 45.831 428.433 46.0384 427.948 46.3997C427.463 46.761 427.098 47.2596 426.899 47.8309L426.147 50.3499C425.813 51.466 426.492 52.3778 427.656 52.3778H435.61C436.773 52.3778 437.725 53.1881 437.725 54.1789C437.725 55.1696 437.611 56.9277 437.474 58.0811C437.36 58.7303 437.064 59.3338 436.621 59.8212C436.169 60.3093 435.571 60.6376 434.916 60.757C433.521 60.9372 432.116 61.0364 430.708 61.0539H415.727C414.321 61.0319 412.919 60.9042 411.532 60.6719C410.477 60.4316 409.505 59.917 408.713 59.1804C407.923 58.4025 407.375 57.4135 407.133 56.3319C406.907 54.9433 406.784 53.5402 406.763 52.1336V47.9176C406.761 47.3575 406.538 46.8209 406.142 46.4247C405.746 46.0286 405.209 45.8051 404.649 45.803H400.297V45.8044Z" fill="#F9BC22"/>
<path d="M400.393 35.6143C399.835 36.6362 400.33 37.4707 401.494 37.4707H439.99C440.595 37.4435 441.179 37.2369 441.666 36.8771C442.153 36.5173 442.523 36.0206 442.727 35.4502L443.742 32.1454C444.083 31.0337 443.412 30.125 442.25 30.125H413.265C411.859 30.1464 410.456 30.2706 409.067 30.4965C409.067 30.4965 404.068 31.392 401.743 33.8883C401.233 34.4142 400.781 34.9928 400.393 35.6143Z" fill="#F9BC22"/>
<path d="M485.83 68.8871H467.667C466.26 68.8667 464.857 68.742 463.469 68.5139C462.534 68.3276 461.615 68.0732 460.718 67.7527C459.891 67.4644 459.089 67.1077 458.321 66.6863C457.525 66.259 456.8 65.7107 456.171 65.0608C455.59 64.4053 455.092 63.6801 454.689 62.902C454.313 62.1871 453.991 61.4454 453.725 60.6829C453.441 59.8899 453.215 59.0776 453.047 58.2523C452.816 56.8653 452.69 55.463 452.669 54.0571V44.7617C452.69 43.3552 452.813 41.952 453.038 40.5634C453.204 39.7215 453.43 38.8924 453.713 38.0822C453.975 37.3126 454.295 36.5637 454.669 35.8417C455.064 35.0668 455.557 34.3463 456.137 33.698C456.758 33.0609 457.475 32.5265 458.264 32.1148C459.037 31.6996 459.844 31.3485 460.675 31.0653C461.587 30.7472 462.521 30.4936 463.469 30.3063C464.857 30.0789 466.26 29.9542 467.667 29.9331V29.9345H485.832C487.239 29.9555 488.642 30.0788 490.03 30.3032C490.985 30.4902 491.924 30.7443 492.843 31.0636C493.675 31.3456 494.482 31.6967 495.256 32.1132C496.039 32.523 496.749 33.0587 497.359 33.6989C497.938 34.338 498.431 35.0494 498.827 35.8154C499.201 36.5269 499.52 37.2655 499.782 38.0251C500.064 38.8224 500.289 39.639 500.455 40.4684C500.683 41.8567 500.807 43.26 500.829 44.6667V54.1543C500.806 55.5596 500.675 56.9611 500.437 58.3463C500.266 59.1644 500.038 59.9694 499.753 60.7553C499.487 61.5079 499.166 62.2398 498.792 62.9451C498.392 63.709 497.899 64.42 497.323 65.0613C496.706 65.7136 495.988 66.2627 495.196 66.6879C494.429 67.1107 493.627 67.4677 492.799 67.7552C491.895 68.0765 490.97 68.3312 490.029 68.5172C488.64 68.7428 487.237 68.8664 485.83 68.8871ZM470.255 37.2801C468.849 37.301 467.446 37.4218 466.057 37.6414C465.733 37.7088 465.417 37.807 465.112 37.9347C464.405 38.2198 463.76 38.6385 463.213 39.168C462.685 39.7158 462.269 40.361 461.989 41.0677C461.857 41.3823 461.754 41.7079 461.68 42.0408C461.436 43.4254 461.302 44.8271 461.28 46.2328V52.4197C461.301 53.8254 461.427 55.2275 461.657 56.6145C461.726 56.9327 461.828 57.243 461.961 57.5406C462.256 58.2314 462.689 58.8547 463.234 59.3721C463.79 59.8911 464.436 60.3044 465.14 60.5918C465.437 60.7168 465.744 60.8132 466.059 60.8799C467.448 61.102 468.851 61.2237 470.257 61.2439H485.39C485.393 61.2439 486.329 61.0757 487.475 60.8664C487.804 60.797 488.125 60.6981 488.436 60.5708C489.134 60.2979 489.772 59.8915 490.315 59.3743C490.618 59.0897 490.885 58.7688 491.109 58.4189C491.298 58.1262 491.46 57.8173 491.594 57.4958C491.728 57.1828 491.831 56.8572 491.901 56.5239C492.125 55.1352 492.248 53.7321 492.269 52.3256V46.2214C492.248 44.8151 492.12 43.4125 491.888 42.0253C491.815 41.6892 491.712 41.3605 491.579 41.0437C491.447 40.7213 491.287 40.4109 491.102 40.1159C490.884 39.768 490.624 39.4481 490.329 39.1633C489.778 38.6287 489.128 38.2076 488.415 37.9237C488.108 37.7959 487.79 37.6982 487.464 37.632C486.074 37.418 484.671 37.3008 483.265 37.2812L470.255 37.2801Z" fill="#F9BC22"/>
<path d="M507.223 66.7741C507.225 67.3342 507.448 67.8708 507.845 68.2667C508.241 68.6625 508.778 68.8856 509.338 68.887H540.88C541.486 68.8597 542.07 68.653 542.557 68.2933C543.045 67.9336 543.415 67.437 543.62 66.8666L544.732 63.2674C545.075 62.1543 544.405 61.2453 543.242 61.2453H517.891C517.331 61.2438 516.794 61.0208 516.398 60.6249C516.002 60.229 515.779 59.6924 515.777 59.1323V32.0475C515.775 31.4872 515.551 30.9504 515.155 30.5542C514.759 30.1581 514.222 29.9347 513.662 29.9329H509.339C508.779 29.9347 508.242 30.1581 507.846 30.5542C507.45 30.9504 507.226 31.4872 507.225 32.0475V66.7741H507.223Z" fill="#F9BC22"/>
<path d="M551.217 66.776C551.219 67.3361 551.442 67.8727 551.838 68.2686C552.235 68.6645 552.771 68.8875 553.331 68.889H583.617C585.023 68.8679 586.426 68.7442 587.815 68.5188C587.815 68.5188 592.799 67.635 595.13 65.0569C597.443 62.5247 598.225 58.3476 598.225 58.3476C598.462 56.9624 598.592 55.5611 598.614 54.1559V44.6636C598.614 43.5011 598.565 41.8941 598.506 41.0912C598.37 40.159 598.183 39.235 597.945 38.3236C597.944 38.3222 597.542 37.4566 597.053 36.4015C596.546 35.4122 595.901 34.5002 595.137 33.6931C592.869 31.1934 587.814 30.2996 587.814 30.2996C586.426 30.0754 585.023 29.9523 583.616 29.9312H553.331C552.771 29.933 552.234 30.1563 551.838 30.5525C551.442 30.9487 551.219 31.4855 551.217 32.0458V35.2238C551.218 35.7839 551.442 36.3207 551.838 36.7166C552.234 37.1125 552.771 37.3355 553.331 37.3367L581.052 37.3249C582.214 37.3235 583.234 37.3235 583.318 37.3249C583.403 37.3262 584.544 37.5428 585.682 37.7845C586.611 38.0466 587.454 38.5484 588.127 39.2395C588.92 40.02 589.468 41.0161 589.701 42.1046C589.922 43.4936 590.043 44.8966 590.064 46.3029V52.3346C590.042 53.7414 589.917 55.1446 589.689 56.533C589.442 57.6175 588.884 58.6066 588.085 59.3801C587.294 60.1221 586.319 60.6385 585.261 60.8754C583.874 61.1067 582.471 61.2334 581.065 61.2544H561.884C561.323 61.2529 560.787 61.0299 560.39 60.634C559.994 60.2381 559.771 59.7015 559.769 59.1414V48.3943C559.767 47.834 559.544 47.2972 559.148 46.9011C558.751 46.5049 558.215 46.2815 557.654 46.2797H553.333C552.773 46.2815 552.236 46.5049 551.84 46.9011C551.443 47.2972 551.22 47.834 551.218 48.3943V66.776H551.217Z" fill="#F9BC22"/>
<path d="M605.009 66.77C605.011 67.3301 605.235 67.8667 605.631 68.2626C606.027 68.6585 606.564 68.8815 607.124 68.8829H611.445C612.005 68.8815 612.542 68.6585 612.938 68.2626C613.335 67.8667 613.558 67.3301 613.56 66.77V58.3734C613.562 57.8133 613.785 57.2767 614.182 56.8808C614.578 56.4849 615.115 56.2618 615.675 56.2604H633.917C635.323 56.2379 636.725 56.1052 638.111 55.8635C638.111 55.8635 642.774 54.9741 645.168 52.3314C647.485 49.7647 648.746 46.4174 648.7 42.96C648.746 39.5532 647.482 36.2588 645.169 33.7572C642.834 31.1885 638.112 30.3206 638.112 30.3206C636.726 30.0871 635.323 29.9589 633.917 29.9373H607.124C606.564 29.9391 606.027 30.1625 605.631 30.5586C605.234 30.9548 605.011 31.4916 605.009 32.0519V35.3219C605.011 35.8821 605.234 36.4189 605.631 36.8151C606.027 37.2113 606.564 37.4347 607.124 37.4365H632.773C634.178 37.4602 635.579 37.5964 636.963 37.8439C636.963 37.8439 637.814 38.011 638.803 39.1437C639.784 40.2123 640.32 41.6153 640.301 43.0658C640.309 44.5305 639.777 45.9467 638.806 47.0432C637.745 48.1952 636.872 48.3667 636.872 48.3667C635.488 48.6117 634.087 48.7469 632.681 48.7711H607.124C606.564 48.7729 606.027 48.9963 605.631 49.3925C605.234 49.7886 605.011 50.3254 605.009 50.8857V66.7694V66.77Z" fill="black"/>
<path d="M655.098 66.7655C655.1 67.3256 655.323 67.8622 655.72 68.2581C656.116 68.654 656.653 68.877 657.213 68.8785H690.823C691.428 68.852 692.011 68.6454 692.497 68.285C692.983 67.9247 693.351 67.4272 693.552 66.8564L694.605 63.3884C694.943 62.2753 694.267 61.3663 693.105 61.3663H665.733C665.172 61.3642 664.636 61.1405 664.239 60.7441C663.843 60.3477 663.62 59.8107 663.618 59.2503V54.7423C663.62 54.1819 663.843 53.6449 664.239 53.2485C664.636 52.8521 665.172 52.6285 665.733 52.6263H688.719C689.324 52.5999 689.907 52.3931 690.394 52.0325C690.88 51.6719 691.247 51.174 691.449 50.6029L692.269 47.9063C692.608 46.7932 691.932 45.8828 690.77 45.8828H657.211C656.651 45.8846 656.114 46.108 655.718 46.5042C655.321 46.9004 655.098 47.4372 655.096 47.9974V66.7655H655.098Z" fill="black"/>
<path d="M655.098 35.3249C655.099 35.8852 655.323 36.422 655.719 36.8182C656.115 37.2143 656.652 37.4377 657.212 37.4395H690.822C691.427 37.4128 692.01 37.2058 692.497 36.8453C692.983 36.4847 693.35 35.987 693.552 35.4161L694.604 31.9635C694.943 30.8518 694.267 29.9414 693.104 29.9414H657.211C656.651 29.9432 656.114 30.1666 655.718 30.5628C655.321 30.9589 655.098 31.4958 655.096 32.056V35.3249H655.098Z" fill="black"/>
<path d="M701.325 66.8677C700.974 67.9781 701.639 68.884 702.801 68.884H730.464C731.87 68.8603 733.271 68.7241 734.655 68.4766C734.655 68.4766 738.731 67.6756 740.862 65.2875C742.99 62.9312 744.143 59.8544 744.087 56.6802C744.087 53.4538 741.988 50.1038 741.988 50.1038C741.37 49.1174 740.864 48.3115 740.863 48.3101C740.861 48.3087 740.089 47.7519 739.145 47.073L734.659 45.242C733.272 45.0126 731.869 44.8864 730.463 44.8644H712.301C712.265 44.8644 711.184 44.8481 710.022 44.8481H702.543C701.38 44.8481 700.791 45.7287 701.235 46.8031C701.703 47.8294 702.326 48.778 703.081 49.616C705.144 51.9245 709.068 52.6587 709.068 52.6587C710.455 52.894 711.857 53.0233 713.263 53.0453H730.234C731.63 53.0715 733.02 53.2217 734.389 53.4942L735.153 54.3717C735.876 55.1967 736.271 56.2585 736.263 57.3555C736.255 58.4525 735.845 59.5084 735.11 60.3228C734.85 60.6365 734.569 60.9308 734.266 61.2033C732.886 61.4637 731.485 61.607 730.08 61.6317H705.096C704.49 61.6597 703.905 61.8659 703.415 62.2246C702.926 62.5832 702.553 63.0784 702.343 63.648L701.325 66.8677Z" fill="black"/>
<path d="M701.573 35.2563C701.067 36.3039 701.605 37.1604 702.769 37.1604H736.861C737.467 37.1329 738.052 36.9269 738.542 36.5682C739.032 36.2095 739.406 35.7141 739.615 35.1441L740.63 31.9523C740.981 30.8436 740.318 29.936 739.156 29.936H713.283C711.876 29.9569 710.473 30.0782 709.084 30.299C709.084 30.299 705.069 30.9989 703.1 33.182C702.501 33.8022 701.988 34.4998 701.573 35.2563Z" fill="black"/>
<path d="M791.378 67.0179C791.704 67.5588 792.157 68.0118 792.698 68.3374C793.239 68.663 793.852 68.8514 794.482 68.8862H800.169C801.332 68.8862 801.829 68.049 801.274 67.0298L782.12 31.7916C781.788 31.253 781.33 30.8027 780.786 30.4792C780.242 30.1558 779.628 29.9686 778.996 29.9338H772.989C772.357 29.9691 771.743 30.1565 771.199 30.4799C770.655 30.8033 770.197 31.2533 769.864 31.7916L750.711 67.0301C750.156 68.052 750.653 68.8864 751.816 68.8864H757.243C757.875 68.8515 758.489 68.6637 759.032 68.3393C759.575 68.0149 760.031 67.5635 760.361 67.024L775 39.8178C775.552 38.7926 776.447 38.7959 776.992 39.8253L791.378 67.0179Z" fill="black"/>
</g>
</g>
<defs>
<linearGradient id="paint0_linear_2916_114" x1="1206.67" y1="859.444" x2="-7.77783" y2="859.444" gradientUnits="userSpaceOnUse">
<stop stop-color="#FFD66D"/>
<stop offset="1" stop-color="white"/>
</linearGradient>
<linearGradient id="paint1_linear_2916_114" x1="1206.67" y1="453.889" x2="-7.77783" y2="453.889" gradientUnits="userSpaceOnUse">
<stop stop-color="#BEBEBE"/>
<stop offset="1" stop-color="white"/>
</linearGradient>
<clipPath id="clip0_2916_114">
<rect width="1200" height="1200" fill="white"/>
</clipPath>
<clipPath id="clip1_2916_114">
<rect width="403.319" height="38.9578" fill="white" transform="translate(398.182 29.9312)"/>
</clipPath>
</defs>
</svg>
