<svg width="1080" height="1080" viewBox="0 0 1080 1080" fill="none" xmlns="http://www.w3.org/2000/svg">
<g clip-path="url(#clip0_2911_374)">
<rect width="1080" height="1080" fill="#D9D9D9"/>
<rect x="323.75" y="88.75" width="432.5" height="873.5" fill="#C8C8C8" stroke="#9E9E9E" stroke-width="1.5"/>
<rect x="-11.5259" y="102.474" width="1103.05" height="116.052" fill="white" stroke="#9E9E9E" stroke-width="0.948148"/>
<text fill="#1B1B1B" xml:space="preserve" style="white-space: pre" font-family="Roboto Mono" font-size="52" letter-spacing="0em"><tspan x="120" y="180.698">Pawn BuyBack: {{PAWN_BUYBACK}}</tspan></text>
<rect x="-6.52593" y="963.474" width="1092.05" height="116.052" fill="white" stroke="#9E9E9E" stroke-width="0.948148"/>
<text fill="#1B1B1B" xml:space="preserve" style="white-space: pre" font-family="Roboto Mono" font-size="35" letter-spacing="0em"><tspan x="135.453" y="1035.01">Tx Hash:</tspan></text>
<text fill="#1B1B1B" xml:space="preserve" style="white-space: pre" font-family="Roboto Mono" font-size="25" letter-spacing="0em"><tspan x="345.453" y="1031.62">{{TX_HASH}}</tspan></text>
<rect x="-6.52593" y="598.474" width="1092.05" height="350.052" fill="url(#paint0_linear_2911_374)" stroke="#9E9E9E" stroke-width="0.948148"/>
<text fill="#1B1B1B" xml:space="preserve" style="white-space: pre" font-family="Roboto Mono" font-size="45" letter-spacing="0em"><tspan x="65" y="683.913">GPX Price After:</tspan></text>
<text fill="#1B1B1B" xml:space="preserve" style="white-space: pre" font-family="Roboto Mono" font-size="120" font-weight="bold" letter-spacing="0em"><tspan x="100" y="845.545">{{GPX_PRICE_AFTER}}</tspan></text>
<rect x="-6.52593" y="233.474" width="1092.05" height="350.052" fill="url(#paint1_linear_2911_374)" stroke="#9E9E9E" stroke-width="0.948148"/>
<text fill="#1B1B1B" xml:space="preserve" style="white-space: pre" font-family="Roboto Mono" font-size="45" letter-spacing="0em"><tspan x="65" y="304.979">GPX Price Before:</tspan></text>
<text fill="#1B1B1B" xml:space="preserve" style="white-space: pre" font-family="Roboto Mono" font-size="120" font-weight="bold" letter-spacing="0em"><tspan x="100" y="477.611">{{GPX_PRICE_BEFORE}}</tspan></text>
<rect x="-6.525" y="0.475" width="1092.05" height="87.05" fill="#F6F6F6" stroke="#9E9E9E" stroke-width="0.95"/>
<g clip-path="url(#clip1_2911_374)">
<path d="M360.267 41.2239C359.763 41.2253 359.28 41.4262 358.923 41.7828C358.567 42.1395 358.366 42.6227 358.364 43.1271V48.4803C358.384 49.7465 358.498 51.0095 358.705 52.2588C358.705 52.2588 359.396 56.0435 361.514 58.3884C363.667 60.7002 368.07 61.4895 368.07 61.4895C369.319 61.6947 370.582 61.8069 371.848 61.8253H389.779C391.043 61.8031 392.304 61.6769 393.548 61.448C393.548 61.448 396.829 60.7818 398.743 58.8801C400.671 57.0053 401.283 53.8679 401.283 53.8679C401.504 52.622 401.626 51.3605 401.647 50.0954V43.1271C401.645 42.6228 401.444 42.1397 401.087 41.7831C400.731 41.4266 400.248 41.2255 399.744 41.2239H386.658C386.114 41.2479 385.59 41.4346 385.154 41.7597C384.717 42.0849 384.388 42.5336 384.21 43.0478L383.533 45.3149C383.232 46.3194 383.843 47.14 384.89 47.14H392.05C393.096 47.14 393.953 47.8693 393.953 48.761C393.953 49.6526 393.851 51.2349 393.727 52.273C393.625 52.8573 393.358 53.4004 392.959 53.8391C392.552 54.2783 392.014 54.5738 391.425 54.6813C390.169 54.8435 388.904 54.9327 387.638 54.9485H374.154C372.889 54.9287 371.627 54.8138 370.379 54.6047C369.43 54.3884 368.555 53.9253 367.842 53.2623C367.131 52.5622 366.638 51.6721 366.42 50.6987C366.217 49.449 366.106 48.1861 366.087 46.9202V43.1258C366.085 42.6217 365.884 42.1388 365.528 41.7822C365.172 41.4257 364.689 41.2246 364.185 41.2227H360.267V41.2239Z" fill="#F9BC22"/>
<path d="M360.354 32.0529C359.852 32.9727 360.298 33.7236 361.345 33.7236H395.991C396.536 33.6992 397.061 33.5132 397.5 33.1894C397.938 32.8656 398.271 32.4186 398.454 31.9052L399.368 28.9309C399.675 27.9304 399.071 27.1125 398.025 27.1125H371.939C370.673 27.1318 369.41 27.2436 368.161 27.4469C368.161 27.4469 363.661 28.2528 361.569 30.4995C361.11 30.9729 360.703 31.4936 360.354 32.0529Z" fill="#F9BC22"/>
<path d="M437.247 61.9982H420.9C419.634 61.9799 418.371 61.8677 417.122 61.6624C416.281 61.4948 415.454 61.2658 414.646 60.9773C413.902 60.7179 413.181 60.3968 412.49 60.0175C411.773 59.633 411.12 59.1395 410.555 58.5546C410.031 57.9647 409.583 57.312 409.22 56.6117C408.882 55.9683 408.592 55.3007 408.353 54.6146C408.097 53.9008 407.893 53.1698 407.742 52.427C407.535 51.1787 407.421 49.9166 407.402 48.6513V40.2854C407.421 39.0196 407.532 37.7567 407.734 36.507C407.884 35.7493 408.087 35.0031 408.342 34.2739C408.578 33.5813 408.865 32.9072 409.202 32.2574C409.558 31.56 410.002 30.9116 410.524 30.3281C411.082 29.7547 411.728 29.2738 412.438 28.9033C413.134 28.5295 413.86 28.2136 414.608 27.9586C415.429 27.6724 416.269 27.4441 417.122 27.2755C418.372 27.0709 419.634 26.9587 420.9 26.9397V26.9409H437.249C438.515 26.9599 439.778 27.0708 441.028 27.2728C441.886 27.4411 442.732 27.6698 443.559 27.9572C444.308 28.211 445.034 28.5269 445.73 28.9018C446.435 29.2706 447.075 29.7527 447.623 30.3289C448.144 30.9041 448.588 31.5444 448.945 32.2338C449.281 32.8741 449.568 33.5389 449.804 34.2225C450.058 34.9401 450.261 35.675 450.41 36.4214C450.615 37.671 450.727 38.9339 450.746 40.1999V48.7388C450.726 50.0035 450.608 51.2649 450.394 52.5115C450.24 53.2478 450.034 53.9724 449.778 54.6797C449.539 55.357 449.249 56.0157 448.913 56.6505C448.554 57.338 448.11 57.9779 447.591 58.5551C447.035 59.1421 446.389 59.6364 445.677 60.019C444.986 60.3995 444.264 60.7209 443.519 60.9795C442.706 61.2688 441.873 61.498 441.027 61.6654C439.777 61.8684 438.514 61.9797 437.247 61.9982ZM423.23 33.552C421.964 33.5708 420.702 33.6795 419.451 33.8772C419.16 33.9378 418.875 34.0262 418.601 34.1412C417.965 34.3977 417.385 34.7746 416.892 35.2511C416.417 35.7441 416.043 36.3248 415.79 36.9609C415.672 37.244 415.579 37.537 415.512 37.8366C415.293 39.0827 415.172 40.3443 415.152 41.6094V47.1777C415.171 48.4428 415.285 49.7047 415.492 50.9529C415.554 51.2393 415.646 51.5186 415.765 51.7864C416.031 52.4082 416.42 52.9691 416.911 53.4348C417.411 53.9019 417.993 54.2739 418.627 54.5325C418.893 54.645 419.17 54.7318 419.453 54.7918C420.703 54.9917 421.966 55.1012 423.232 55.1194H436.851C436.854 55.1194 437.697 54.968 438.728 54.7796C439.024 54.7172 439.313 54.6282 439.593 54.5136C440.221 54.2681 440.795 53.9023 441.283 53.4368C441.556 53.1806 441.797 52.8918 441.999 52.5769C442.168 52.3135 442.314 52.0355 442.435 51.7461C442.555 51.4644 442.648 51.1714 442.711 50.8714C442.913 49.6216 443.024 48.3588 443.043 47.0929V41.5992C443.023 40.3335 442.908 39.0711 442.699 37.8227C442.634 37.5202 442.541 37.2244 442.421 36.9392C442.302 36.6491 442.159 36.3697 441.992 36.1042C441.796 35.7911 441.562 35.5032 441.296 35.2469C440.801 34.7658 440.216 34.3867 439.574 34.1312C439.298 34.0162 439.011 33.9283 438.717 33.8687C437.467 33.6761 436.204 33.5706 434.939 33.553L423.23 33.552Z" fill="#F9BC22"/>
<path d="M456.501 60.0968C456.503 60.6009 456.704 61.0838 457.061 61.4401C457.417 61.7964 457.901 61.9971 458.405 61.9985H486.793C487.338 61.9738 487.863 61.7878 488.302 61.4641C488.741 61.1403 489.074 60.6934 489.259 60.1801L490.259 56.9408C490.568 55.939 489.965 55.1209 488.919 55.1209H466.103C465.599 55.1196 465.116 54.9188 464.759 54.5625C464.402 54.2062 464.201 53.7233 464.2 53.2192V28.8429C464.198 28.3386 463.997 27.8555 463.64 27.4989C463.284 27.1424 462.801 26.9413 462.296 26.9397H458.406C457.902 26.9413 457.418 27.1424 457.062 27.4989C456.705 27.8555 456.504 28.3386 456.503 28.8429V60.0968H456.501Z" fill="#F9BC22"/>
<path d="M496.096 60.0983C496.097 60.6024 496.299 61.0854 496.655 61.4417C497.012 61.798 497.495 61.9987 497.999 62H525.256C526.522 61.9811 527.784 61.8698 529.034 61.6669C529.034 61.6669 533.52 60.8714 535.618 58.5512C537.699 56.2721 538.403 52.5128 538.403 52.5128C538.616 51.2661 538.734 50.0049 538.753 48.7403V40.1972C538.753 39.1509 538.709 37.7047 538.656 36.982C538.534 36.143 538.366 35.3115 538.151 34.4912C538.15 34.49 537.789 33.7109 537.348 32.7613C536.892 31.8709 536.312 31.0501 535.624 30.3237C533.582 28.074 529.034 27.2696 529.034 27.2696C527.784 27.0679 526.521 26.957 525.255 26.938H497.999C497.495 26.9396 497.011 27.1407 496.655 27.4972C496.298 27.8538 496.097 28.3369 496.096 28.8411V31.7014C496.097 32.2055 496.298 32.6885 496.655 33.0449C497.012 33.4012 497.495 33.6019 497.999 33.603L522.947 33.5923C523.993 33.5911 524.911 33.5911 524.987 33.5923C525.063 33.5936 526.09 33.7885 527.115 34.006C527.95 34.2419 528.709 34.6935 529.315 35.3155C530.029 36.0179 530.522 36.9145 530.731 37.8941C530.93 39.1442 531.039 40.4069 531.058 41.6726V47.1011C531.038 48.3672 530.926 49.6301 530.721 50.8796C530.498 51.8557 529.996 52.7459 529.277 53.442C528.566 54.1098 527.688 54.5746 526.736 54.7878C525.487 54.996 524.225 55.11 522.959 55.1289H505.696C505.192 55.1276 504.709 54.9269 504.352 54.5706C503.995 54.2143 503.794 53.7313 503.793 53.2272V43.5548C503.791 43.0506 503.59 42.5675 503.233 42.2109C502.877 41.8544 502.394 41.6533 501.889 41.6517H498C497.496 41.6533 497.013 41.8544 496.656 42.2109C496.3 42.5675 496.099 43.0506 496.097 43.5548V60.0983H496.096Z" fill="#F9BC22"/>
<path d="M544.509 60.0928C544.51 60.5969 544.712 61.0798 545.068 61.4361C545.425 61.7924 545.908 61.9932 546.412 61.9945H550.301C550.805 61.9932 551.288 61.7924 551.645 61.4361C552.002 61.0798 552.203 60.5969 552.204 60.0928V52.5358C552.206 52.0318 552.407 51.5488 552.764 51.1925C553.12 50.8362 553.604 50.6355 554.108 50.6342H570.526C571.791 50.6139 573.053 50.4945 574.3 50.277C574.3 50.277 578.497 49.4765 580.651 47.0981C582.737 44.7881 583.872 41.7755 583.83 38.6639C583.872 35.5977 582.734 32.6327 580.653 30.3813C578.551 28.0694 574.301 27.2884 574.301 27.2884C573.053 27.0782 571.791 26.9629 570.526 26.9434H546.412C545.908 26.945 545.425 27.146 545.068 27.5026C544.711 27.8591 544.51 28.3423 544.509 28.8465V31.7895C544.51 32.2938 544.711 32.7769 545.068 33.1334C545.425 33.49 545.908 33.691 546.412 33.6927H569.496C570.761 33.714 572.022 33.8366 573.267 34.0593C573.267 34.0593 574.033 34.2097 574.923 35.2292C575.806 36.1909 576.289 37.4536 576.272 38.7591C576.279 40.0773 575.8 41.3518 574.926 42.3387C573.971 43.3755 573.186 43.5299 573.186 43.5299C571.94 43.7504 570.678 43.8721 569.413 43.8938H546.412C545.908 43.8955 545.425 44.0965 545.068 44.453C544.711 44.8096 544.51 45.2927 544.509 45.797V60.0923V60.0928Z" fill="black"/>
<path d="M589.589 60.0891C589.59 60.5932 589.791 61.0761 590.148 61.4324C590.505 61.7888 590.988 61.9895 591.492 61.9908H621.741C622.285 61.967 622.81 61.781 623.248 61.4567C623.685 61.1324 624.016 60.6846 624.198 60.1709L625.144 57.0497C625.449 56.0479 624.841 55.2298 623.795 55.2298H599.16C598.656 55.2279 598.172 55.0266 597.816 54.6698C597.459 54.3131 597.258 53.8298 597.257 53.3254V49.2683C597.258 48.7639 597.459 48.2806 597.816 47.9238C598.172 47.567 598.656 47.3658 599.16 47.3639H619.848C620.392 47.34 620.917 47.1539 621.355 46.8294C621.792 46.5048 622.123 46.0567 622.304 45.5427L623.043 43.1158C623.348 42.114 622.739 41.2947 621.693 41.2947H591.49C590.986 41.2963 590.503 41.4974 590.146 41.8539C589.79 42.2105 589.589 42.6936 589.587 43.1978V60.0891H589.589Z" fill="black"/>
<path d="M589.588 31.7924C589.59 32.2967 589.791 32.7798 590.147 33.1363C590.504 33.4929 590.987 33.6939 591.491 33.6956H621.741C622.285 33.6715 622.81 33.4852 623.247 33.1607C623.685 32.8362 624.016 32.3883 624.197 31.8744L625.144 28.7671C625.449 27.7666 624.84 26.9473 623.794 26.9473H591.49C590.986 26.9489 590.503 27.1499 590.146 27.5065C589.79 27.8631 589.589 28.3462 589.587 28.8504V31.7924H589.588Z" fill="black"/>
<path d="M631.193 60.1811C630.877 61.1804 631.475 61.9958 632.521 61.9958H657.418C658.683 61.9745 659.944 61.8519 661.189 61.6291C661.189 61.6291 664.859 60.9082 666.776 58.759C668.691 56.6383 669.729 53.8692 669.679 51.0124C669.679 48.1087 667.789 45.0936 667.789 45.0936C667.233 44.2059 666.778 43.4805 666.777 43.4793C666.775 43.478 666.081 42.9769 665.231 42.3659L661.194 40.718C659.945 40.5115 658.683 40.3979 657.417 40.3782H641.071C641.039 40.3782 640.066 40.3635 639.02 40.3635H632.289C631.242 40.3635 630.712 41.156 631.112 42.123C631.533 43.0467 632.094 43.9004 632.773 44.6546C634.63 46.7322 638.162 47.393 638.162 47.393C639.409 47.6048 640.671 47.7212 641.937 47.741H657.211C658.467 47.7646 659.718 47.8997 660.95 48.1449L661.638 48.9347C662.289 49.6772 662.644 50.6328 662.637 51.6201C662.63 52.6074 662.26 53.5577 661.599 54.2907C661.366 54.573 661.112 54.8379 660.84 55.0832C659.597 55.3176 658.337 55.4465 657.073 55.4687H634.587C634.041 55.4939 633.515 55.6795 633.074 56.0023C632.633 56.3251 632.298 56.7707 632.109 57.2834L631.193 60.1811Z" fill="black"/>
<path d="M631.417 31.7306C630.961 32.6735 631.445 33.4443 632.492 33.4443H663.175C663.721 33.4196 664.248 33.2342 664.689 32.9113C665.13 32.5885 665.466 32.1427 665.654 31.6297L666.568 28.757C666.883 27.7592 666.287 26.9424 665.241 26.9424H641.955C640.689 26.9612 639.427 27.0703 638.177 27.269C638.177 27.269 634.562 27.8989 632.791 29.8637C632.252 30.4219 631.789 31.0498 631.417 31.7306Z" fill="black"/>
<path d="M712.241 60.3161C712.534 60.8029 712.942 61.2106 713.429 61.5036C713.916 61.7967 714.467 61.9663 715.034 61.9975H720.153C721.199 61.9975 721.646 61.2441 721.147 60.3268L703.909 28.6124C703.61 28.1276 703.198 27.7224 702.708 27.4313C702.218 27.1402 701.665 26.9718 701.097 26.9404H695.691C695.122 26.9722 694.569 27.1408 694.08 27.4319C693.59 27.723 693.178 28.128 692.878 28.6124L675.641 60.327C675.141 61.2468 675.588 61.9978 676.635 61.9978H681.52C682.088 61.9663 682.64 61.7973 683.129 61.5054C683.618 61.2134 684.028 60.8072 684.325 60.3216L697.5 35.836C697.997 34.9133 698.803 34.9163 699.293 35.8427L712.241 60.3161Z" fill="black"/>
</g>
</g>
<defs>
<linearGradient id="paint0_linear_2911_374" x1="1086" y1="773.5" x2="-7" y2="773.5" gradientUnits="userSpaceOnUse">
<stop stop-color="#FFD66D"/>
<stop offset="1" stop-color="white"/>
</linearGradient>
<linearGradient id="paint1_linear_2911_374" x1="1086" y1="408.5" x2="-7" y2="408.5" gradientUnits="userSpaceOnUse">
<stop stop-color="#BEBEBE"/>
<stop offset="1" stop-color="white"/>
</linearGradient>
<clipPath id="clip0_2911_374">
<rect width="1080" height="1080" fill="white"/>
</clipPath>
<clipPath id="clip1_2911_374">
<rect width="362.987" height="35.062" fill="white" transform="translate(358.364 26.938)"/>
</clipPath>
</defs>
</svg>
