<svg width="1080" height="1350" viewBox="0 0 1080 1350" fill="none" xmlns="http://www.w3.org/2000/svg">
<g clip-path="url(#clip0_2911_297)">
<rect width="1080" height="1350" fill="#D9D9D9"/>
<rect x="323.75" y="135.75" width="432.5" height="1218.5" fill="#C8C8C8" stroke="#9E9E9E" stroke-width="1.5"/>
<rect x="-6.25" y="0.75" width="1091.5" height="133.5" fill="#F6F6F6" stroke="#9E9E9E" stroke-width="1.5"/>
<g clip-path="url(#clip1_2911_297)">
<path d="M360.894 65.9495C360.391 65.9509 359.909 66.1511 359.554 66.5065C359.199 66.8618 358.998 67.3434 358.997 67.846V73.1806C359.017 74.4424 359.13 75.701 359.337 76.9459C359.337 76.9459 360.025 80.7174 362.136 83.0541C364.282 85.3579 368.669 86.1444 368.669 86.1444C369.914 86.3489 371.172 86.4608 372.434 86.4791H390.302C391.562 86.457 392.818 86.3312 394.058 86.1031C394.058 86.1031 397.328 85.4392 399.235 83.5441C401.157 81.6758 401.766 78.5494 401.766 78.5494C401.986 77.3079 402.108 76.0508 402.129 74.79V67.846C402.127 67.3435 401.927 66.8621 401.571 66.5068C401.216 66.1515 400.735 65.9511 400.232 65.9495H387.192C386.65 65.9734 386.128 66.1594 385.693 66.4834C385.258 66.8075 384.93 67.2546 384.752 67.767L384.078 70.0262C383.778 71.0272 384.387 71.8449 385.431 71.8449H392.565C393.608 71.8449 394.462 72.5717 394.462 73.4603C394.462 74.3488 394.36 75.9256 394.237 76.96C394.135 77.5423 393.869 78.0836 393.471 78.5207C393.066 78.9584 392.53 79.2529 391.943 79.3599C390.691 79.5216 389.431 79.6105 388.169 79.6262H374.732C373.471 79.6065 372.214 79.492 370.97 79.2836C370.024 79.0681 369.152 78.6066 368.442 77.946C367.734 77.2483 367.242 76.3613 367.025 75.3912C366.822 74.1459 366.711 72.8874 366.693 71.6259V67.8448C366.691 67.3425 366.491 66.8612 366.136 66.5059C365.781 66.1506 365.299 65.9501 364.797 65.9482H360.894V65.9495Z" fill="#F9BC22"/>
<path d="M360.98 56.8103C360.479 57.7269 360.924 58.4753 361.968 58.4753H396.493C397.036 58.4509 397.559 58.2656 397.996 57.9429C398.433 57.6202 398.765 57.1747 398.948 56.6632L399.858 53.6993C400.164 52.7022 399.562 51.8872 398.52 51.8872H372.525C371.263 51.9064 370.005 52.0178 368.759 52.2204C368.759 52.2204 364.276 53.0235 362.191 55.2624C361.733 55.7341 361.328 56.253 360.98 56.8103Z" fill="#F9BC22"/>
<path d="M437.605 86.6514H421.315C420.053 86.6332 418.795 86.5213 417.55 86.3168C416.712 86.1497 415.887 85.9215 415.083 85.634C414.341 85.3755 413.622 85.0556 412.934 84.6776C412.219 84.2944 411.569 83.8026 411.005 83.2198C410.484 82.6319 410.037 81.9815 409.675 81.2836C409.339 80.6425 409.05 79.9773 408.811 79.2935C408.557 78.5822 408.353 77.8537 408.203 77.1136C407.996 75.8696 407.883 74.6119 407.864 73.351V65.0143C407.883 63.7528 407.993 62.4944 408.195 61.249C408.344 60.494 408.546 59.7504 408.8 59.0237C409.035 58.3335 409.322 57.6618 409.657 57.0143C410.012 56.3193 410.454 55.6731 410.974 55.0917C411.531 54.5203 412.175 54.041 412.882 53.6718C413.576 53.2994 414.299 52.9845 415.044 52.7305C415.862 52.4452 416.7 52.2177 417.55 52.0498C418.795 51.8458 420.053 51.734 421.315 51.7151V51.7163H437.607C438.868 51.7352 440.127 51.8457 441.372 52.047C442.228 52.2147 443.071 52.4426 443.895 52.729C444.641 52.9819 445.365 53.2968 446.058 53.6703C446.761 54.0379 447.398 54.5183 447.945 55.0925C448.464 55.6657 448.906 56.3037 449.262 56.9907C449.597 57.6288 449.883 58.2913 450.118 58.9725C450.371 59.6876 450.573 60.4199 450.722 61.1638C450.926 62.4089 451.038 63.6675 451.057 64.9291V73.4382C451.036 74.6985 450.919 75.9555 450.706 77.1978C450.552 77.9315 450.347 78.6535 450.092 79.3584C449.853 80.0333 449.565 80.6898 449.23 81.3223C448.872 82.0074 448.429 82.6451 447.913 83.2203C447.359 83.8053 446.715 84.2978 446.005 84.6791C445.317 85.0583 444.597 85.3785 443.855 85.6363C443.045 85.9245 442.215 86.1529 441.371 86.3197C440.125 86.522 438.867 86.6329 437.605 86.6514ZM423.636 58.3044C422.375 58.3231 421.117 58.4314 419.871 58.6284C419.581 58.6888 419.297 58.7769 419.024 58.8915C418.39 59.1471 417.812 59.5227 417.32 59.9975C416.847 60.4888 416.474 61.0675 416.223 61.7013C416.105 61.9834 416.012 62.2755 415.946 62.574C415.727 63.8158 415.607 65.0729 415.587 66.3336V71.8825C415.606 73.1432 415.719 74.4007 415.925 75.6446C415.987 75.93 416.079 76.2083 416.197 76.4752C416.462 77.0948 416.851 77.6538 417.339 78.1178C417.838 78.5833 418.417 78.954 419.049 79.2117C419.315 79.3238 419.591 79.4103 419.873 79.4701C421.118 79.6693 422.377 79.7785 423.638 79.7966H437.21C437.213 79.7966 438.053 79.6457 439.08 79.458C439.375 79.3958 439.664 79.3071 439.942 79.1929C440.568 78.9482 441.141 78.5837 441.627 78.1198C441.899 77.8645 442.138 77.5767 442.34 77.2629C442.509 77.0004 442.654 76.7234 442.774 76.4351C442.895 76.1543 442.987 75.8623 443.05 75.5633C443.251 74.3179 443.361 73.0595 443.38 71.798V66.3235C443.361 65.0622 443.246 63.8042 443.038 62.5602C442.973 62.2587 442.88 61.9639 442.761 61.6798C442.642 61.3906 442.499 61.1123 442.333 60.8477C442.138 60.5357 441.905 60.2487 441.64 59.9933C441.146 59.5139 440.563 59.1361 439.924 58.8816C439.648 58.7669 439.362 58.6793 439.07 58.62C437.824 58.428 436.566 58.3229 435.305 58.3054L423.636 58.3044Z" fill="#F9BC22"/>
<path d="M456.792 84.7566C456.794 85.2589 456.994 85.7402 457.349 86.0952C457.705 86.4503 458.186 86.6503 458.689 86.6516H486.978C487.521 86.6271 488.044 86.4418 488.482 86.1191C488.919 85.7965 489.251 85.3511 489.435 84.8396L490.432 81.6116C490.74 80.6133 490.139 79.798 489.096 79.798H466.36C465.858 79.7967 465.376 79.5967 465.021 79.2416C464.665 78.8866 464.465 78.4053 464.463 77.903V53.6116C464.462 53.1091 464.261 52.6277 463.906 52.2724C463.551 51.9171 463.069 51.7167 462.567 51.7151H458.69C458.187 51.7167 457.706 51.9171 457.351 52.2724C456.995 52.6277 456.795 53.1091 456.793 53.6116V84.7566H456.792Z" fill="#F9BC22"/>
<path d="M496.248 84.7581C496.25 85.2605 496.45 85.7417 496.806 86.0968C497.161 86.4518 497.642 86.6519 498.145 86.6532H525.307C526.568 86.6343 527.827 86.5234 529.072 86.3212C529.072 86.3212 533.542 85.5285 535.632 83.2163C537.707 80.9453 538.408 77.199 538.408 77.199C538.621 75.9567 538.737 74.6999 538.757 73.4397V64.9264C538.757 63.8837 538.713 62.4425 538.66 61.7224C538.539 60.8863 538.371 60.0577 538.157 59.2403C538.156 59.239 537.796 58.4627 537.357 57.5164C536.903 56.6291 536.324 55.8112 535.639 55.0873C533.604 52.8454 529.071 52.0438 529.071 52.0438C527.826 51.8428 526.567 51.7323 525.306 51.7134H498.145C497.642 51.715 497.161 51.9153 496.806 52.2707C496.45 52.626 496.25 53.1074 496.248 53.6099V56.4601C496.25 56.9625 496.45 57.4439 496.806 57.799C497.161 58.1541 497.642 58.3541 498.145 58.3552L523.006 58.3445C524.049 58.3433 524.963 58.3433 525.039 58.3445C525.115 58.3458 526.138 58.54 527.159 58.7567C527.992 58.9918 528.748 59.4419 529.351 60.0617C530.063 60.7617 530.554 61.6551 530.763 62.6313C530.961 63.877 531.07 65.1353 531.089 66.3966V71.8062C531.069 73.0679 530.957 74.3264 530.753 75.5715C530.531 76.5442 530.031 77.4314 529.314 78.125C528.605 78.7905 527.731 79.2536 526.782 79.4662C525.537 79.6736 524.279 79.7872 523.018 79.806H505.815C505.313 79.8047 504.831 79.6047 504.476 79.2496C504.12 78.8946 503.92 78.4133 503.918 77.911V68.2723C503.917 67.7698 503.716 67.2884 503.361 66.9331C503.006 66.5777 502.524 66.3774 502.022 66.3758H498.146C497.644 66.3774 497.162 66.5777 496.807 66.9331C496.451 67.2884 496.251 67.7698 496.25 68.2723V84.7581H496.248Z" fill="#F9BC22"/>
<path d="M544.493 84.7526C544.494 85.255 544.695 85.7362 545.05 86.0913C545.405 86.4463 545.887 86.6464 546.389 86.6477H550.265C550.767 86.6464 551.249 86.4463 551.604 86.0913C551.959 85.7362 552.16 85.255 552.162 84.7526V77.222C552.163 76.7197 552.364 76.2384 552.719 75.8834C553.074 75.5283 553.556 75.3283 554.058 75.327H570.419C571.68 75.3068 572.938 75.1878 574.18 74.971C574.18 74.971 578.363 74.1734 580.509 71.8032C582.587 69.5013 583.719 66.4992 583.677 63.3984C583.719 60.343 582.585 57.3883 580.511 55.1447C578.416 52.8409 574.181 52.0626 574.181 52.0626C572.938 51.8531 571.68 51.7382 570.419 51.7188H546.389C545.887 51.7204 545.405 51.9207 545.05 52.276C544.695 52.6313 544.494 53.1128 544.493 53.6153V56.548C544.494 57.0505 544.695 57.5319 545.05 57.8872C545.405 58.2426 545.887 58.4429 546.389 58.4445H569.393C570.653 58.4658 571.91 58.588 573.151 58.8099C573.151 58.8099 573.914 58.9598 574.801 59.9757C575.681 60.934 576.162 62.1923 576.145 63.4933C576.152 64.8069 575.675 66.077 574.804 67.0604C573.852 68.0936 573.07 68.2475 573.07 68.2475C571.828 68.4672 570.571 68.5884 569.31 68.6101H546.389C545.887 68.6118 545.405 68.8121 545.05 69.1674C544.695 69.5227 544.494 70.0042 544.493 70.5066V84.7521V84.7526Z" fill="black"/>
<path d="M589.415 84.7492C589.417 85.2515 589.617 85.7328 589.973 86.0878C590.328 86.4429 590.81 86.6429 591.312 86.6442H621.456C621.998 86.6205 622.521 86.4351 622.957 86.112C623.393 85.7888 623.723 85.3426 623.904 84.8307L624.847 81.7203C625.151 80.722 624.545 79.9068 623.502 79.9068H598.953C598.451 79.9049 597.969 79.7043 597.614 79.3488C597.258 78.9933 597.058 78.5117 597.057 78.009V73.966C597.058 73.4634 597.258 72.9818 597.614 72.6263C597.969 72.2708 598.451 72.0702 598.953 72.0683H619.569C620.111 72.0446 620.634 71.8591 621.071 71.5356C621.507 71.2122 621.836 70.7657 622.017 70.2535L622.753 67.835C623.057 66.8367 622.45 66.0203 621.408 66.0203H591.31C590.808 66.0219 590.326 66.2222 589.971 66.5775C589.616 66.9329 589.415 67.4143 589.414 67.9168V84.7492H589.415Z" fill="black"/>
<path d="M589.415 56.5509C589.416 57.0534 589.617 57.5348 589.972 57.8902C590.327 58.2455 590.809 58.4458 591.311 58.4474H621.455C621.998 58.4234 622.52 58.2378 622.957 57.9145C623.393 57.5911 623.722 57.1447 623.903 56.6327L624.847 53.5362C625.15 52.5391 624.544 51.7227 623.501 51.7227H591.31C590.808 51.7243 590.326 51.9246 589.971 52.2799C589.616 52.6353 589.415 53.1167 589.414 53.6192V56.5509H589.415Z" fill="black"/>
<path d="M630.875 84.8406C630.56 85.8364 631.156 86.6489 632.198 86.6489H657.009C658.269 86.6276 659.526 86.5055 660.767 86.2835C660.767 86.2835 664.423 85.5651 666.334 83.4234C668.242 81.3101 669.276 78.5506 669.226 75.7038C669.226 72.8102 667.344 69.8056 667.344 69.8056C666.79 68.921 666.336 68.1982 666.334 68.1969C666.333 68.1957 665.641 67.6963 664.794 67.0874L660.771 65.4453C659.527 65.2395 658.269 65.1263 657.008 65.1067H640.718C640.686 65.1067 639.717 65.092 638.675 65.092H631.967C630.924 65.092 630.395 65.8818 630.794 66.8454C631.214 67.7658 631.772 68.6166 632.45 69.3681C634.299 71.4386 637.819 72.097 637.819 72.097C639.063 72.3081 640.32 72.424 641.581 72.4438H656.802C658.054 72.4673 659.301 72.602 660.528 72.8463L661.214 73.6333C661.862 74.3733 662.216 75.3255 662.209 76.3094C662.202 77.2933 661.834 78.2403 661.175 78.9707C660.942 79.252 660.69 79.516 660.418 79.7604C659.18 79.994 657.924 80.1225 656.664 80.1446H634.257C633.713 80.1697 633.189 80.3547 632.749 80.6763C632.31 80.998 631.976 81.442 631.788 81.9529L630.875 84.8406Z" fill="black"/>
<path d="M631.098 56.4893C630.644 57.4289 631.126 58.1971 632.17 58.1971H662.745C663.29 58.1724 663.814 57.9876 664.254 57.6659C664.693 57.3442 665.028 56.8999 665.216 56.3887L666.126 53.5261C666.441 52.5318 665.846 51.7178 664.804 51.7178H641.599C640.338 51.7365 639.08 51.8453 637.834 52.0433C637.834 52.0433 634.232 52.671 632.467 54.6289C631.93 55.1852 631.469 55.8109 631.098 56.4893Z" fill="black"/>
<path d="M711.64 84.9751C711.932 85.4602 712.339 85.8665 712.824 86.1585C713.309 86.4506 713.858 86.6195 714.424 86.6507H719.524C720.567 86.6507 721.013 85.8999 720.515 84.9858L703.337 53.382C703.039 52.8989 702.628 52.4951 702.14 52.205C701.652 51.9149 701.101 51.747 700.535 51.7158H695.147C694.581 51.7475 694.03 51.9155 693.542 52.2056C693.054 52.4956 692.644 52.8992 692.345 53.382L675.167 84.986C674.669 85.9026 675.115 86.6509 676.158 86.6509H681.026C681.592 86.6196 682.143 86.4512 682.63 86.1602C683.116 85.8693 683.526 85.4645 683.822 84.9806L696.951 60.5804C697.446 59.6609 698.249 59.6638 698.737 60.5871L711.64 84.9751Z" fill="black"/>
</g>
<rect x="-6.52593" y="165.474" width="1103.05" height="116.052" fill="white" stroke="#9E9E9E" stroke-width="0.948148"/>
<text fill="#1B1B1B" xml:space="preserve" style="white-space: pre" font-family="Roboto Mono" font-size="52.1481" letter-spacing="0em"><tspan x="140.231" y="240.615">Pawn BuyBack: {{PAWN_BUYBACK}}</tspan></text>
<rect x="-6.52593" y="1068.47" width="1092.05" height="116.052" fill="white" stroke="#9E9E9E" stroke-width="0.948148"/>
<text fill="#1B1B1B" xml:space="preserve" style="white-space: pre" font-family="Roboto Mono" font-size="35" letter-spacing="0em"><tspan x="135.453" y="1140.01">Tx Hash:</tspan></text>
<text fill="#1B1B1B" xml:space="preserve" style="white-space: pre" font-family="Roboto Mono" font-size="25" letter-spacing="0em"><tspan x="345.453" y="1136.62">{{TX_HASH}}</tspan></text>
<rect x="-6.52593" y="689.474" width="1092.05" height="350.052" fill="url(#paint0_linear_2911_297)" stroke="#9E9E9E" stroke-width="0.948148"/>
<text fill="#1B1B1B" xml:space="preserve" style="white-space: pre" font-family="Roboto Mono" font-size="45" letter-spacing="0em"><tspan x="135" y="774.913">GPX Price After:</tspan></text>
<text fill="#1B1B1B" xml:space="preserve" style="white-space: pre" font-family="Roboto Mono" font-size="161.821" font-weight="bold" letter-spacing="0em"><tspan x="135" y="956.289">{{GPX_PRICE_AFTER}}</tspan></text>
<rect x="-6.52593" y="310.474" width="1092.05" height="350.052" fill="url(#paint1_linear_2911_297)" stroke="#9E9E9E" stroke-width="0.948148"/>
<text fill="#1B1B1B" xml:space="preserve" style="white-space: pre" font-family="Roboto Mono" font-size="45" letter-spacing="0em"><tspan x="135" y="381.979">GPX Price Before:</tspan></text>
<text fill="#1B1B1B" xml:space="preserve" style="white-space: pre" font-family="Roboto Mono" font-size="161.821" font-weight="bold" letter-spacing="0em"><tspan x="135" y="563.356">{{GPX_PRICE_BEFORE}}</tspan></text>
<rect x="250.75" y="1315.75" width="577.5" height="38.5" fill="#F6F6F6" stroke="#9E9E9E" stroke-width="1.5"/>
<rect x="0.75" y="1269.75" width="80" height="80" fill="#F6F6F6" stroke="#9E9E9E" stroke-width="1.5"/>
<path d="M19.9905 1288.99L59.1348 1328.13" stroke="#9E9E9E" stroke-width="1.53774"/>
<path d="M19.9905 1328.55L59.1348 1289.41" stroke="#9E9E9E" stroke-width="1.53774"/>
<rect x="33.9863" y="1302.83" width="10.7642" height="10.7642" rx="3.07547" fill="#9E9E9E"/>
<rect x="999.75" y="1269.75" width="80" height="80" fill="#F6F6F6" stroke="#9E9E9E" stroke-width="1.5"/>
<path d="M1018.99 1288.99L1058.13 1328.13" stroke="#9E9E9E" stroke-width="1.53774"/>
<path d="M1018.99 1328.55L1058.13 1289.41" stroke="#9E9E9E" stroke-width="1.53774"/>
<rect x="1032.99" y="1302.83" width="10.7642" height="10.7642" rx="3.07547" fill="#9E9E9E"/>
</g>
<defs>
<linearGradient id="paint0_linear_2911_297" x1="1086" y1="864.5" x2="-7" y2="864.5" gradientUnits="userSpaceOnUse">
<stop stop-color="#FFD66D"/>
<stop offset="1" stop-color="white"/>
</linearGradient>
<linearGradient id="paint1_linear_2911_297" x1="1086" y1="485.5" x2="-7" y2="485.5" gradientUnits="userSpaceOnUse">
<stop stop-color="#BEBEBE"/>
<stop offset="1" stop-color="white"/>
</linearGradient>
<clipPath id="clip0_2911_297">
<rect width="1080" height="1350" fill="white"/>
</clipPath>
<clipPath id="clip1_2911_297">
<rect width="361.722" height="34.9398" fill="white" transform="translate(358.997 51.7134)"/>
</clipPath>
</defs>
</svg>
